<?xml version="1.0" standalone="no"?>
<!DOCTYPE svg PUBLIC "-//W3C//DTD SVG 20010904//EN"
 "http://www.w3.org/TR/2001/REC-SVG-20010904/DTD/svg10.dtd">
<svg version="1.0" xmlns="http://www.w3.org/2000/svg"
 width="1025.000000pt" height="946.000000pt" viewBox="0 0 1025.000000 946.000000"
 preserveAspectRatio="xMidYMid meet">

<g transform="translate(0.000000,946.000000) scale(0.100000,-0.100000)"
fill="#000000" stroke="none">
<path d="M5115 9452 c-3 -3 -5 -43 -5 -89 0 -83 13 -110 25 -53 15 66 77 110
156 110 l42 0 -6 -287 c-7 -277 -8 -289 -28 -305 -12 -10 -32 -18 -45 -18 -13
0 -24 -4 -24 -10 0 -6 64 -10 173 -10 115 0 167 4 157 10 -8 5 -23 10 -32 10
-43 0 -48 23 -48 203 0 95 3 223 7 285 l6 112 53 0 c59 0 103 -28 122 -77 5
-16 13 -37 18 -48 6 -16 9 -13 15 20 12 63 11 135 -3 140 -20 6 -577 12 -583
7z"/>
<path d="M4683 9244 c-18 -9 -47 -39 -65 -68 l-33 -51 -5 45 -5 45 -85 -3
c-47 -2 -89 -7 -94 -13 -6 -6 -4 -9 5 -9 36 0 47 -34 68 -208 11 -94 18 -179
15 -187 -3 -8 -14 -17 -25 -20 -23 -8 -14 -28 9 -21 10 2 63 10 120 16 56 7
102 16 102 21 0 5 -11 9 -24 9 -13 0 -28 6 -34 13 -11 14 -32 158 -32 222 0
89 39 141 82 110 27 -18 69 -20 86 -3 21 21 15 85 -10 102 -28 20 -35 20 -75
0z"/>
<path d="M5770 9213 c0 -4 9 -14 20 -21 26 -16 25 -37 -5 -210 -31 -171 -38
-192 -65 -192 -11 0 -20 -4 -20 -10 0 -5 1 -10 3 -10 2 0 53 -9 113 -20 128
-23 124 -23 124 -10 0 6 -6 10 -14 10 -7 0 -19 7 -27 16 -11 13 -10 33 5 117
20 119 44 179 80 202 25 17 27 16 62 -14 26 -23 41 -30 57 -25 33 9 48 35 45
74 -6 71 -92 73 -168 4 l-39 -36 6 50 6 50 -74 12 c-41 6 -82 14 -91 16 -10 3
-18 2 -18 -3z"/>
<path d="M3672 9146 c-13 -36 -41 -90 -63 -121 -21 -31 -39 -58 -39 -60 0 -3
14 -4 32 -3 l31 3 38 -138 c20 -76 43 -152 50 -168 23 -57 106 -76 167 -39 41
25 81 110 52 110 -5 0 -10 -6 -10 -13 0 -18 -33 -47 -53 -47 -23 0 -30 17 -71
173 -20 75 -39 143 -42 151 -4 10 9 17 45 26 44 10 51 15 51 36 0 13 -1 24 -2
24 -2 0 -26 -6 -55 -14 l-52 -14 -15 52 c-8 28 -18 63 -21 79 -4 15 -10 27
-14 27 -3 0 -17 -29 -29 -64z"/>
<path d="M4069 9147 c-116 -61 -143 -237 -59 -371 51 -80 147 -107 235 -67 49
22 68 43 95 105 21 47 18 79 -4 42 -32 -55 -62 -78 -99 -78 -21 0 -49 7 -62
16 -31 21 -73 83 -77 115 -3 23 2 25 112 49 63 13 117 26 119 28 7 6 -29 92
-51 119 -26 34 -89 65 -131 65 -19 0 -54 -10 -78 -23z m76 -13 c19 -7 50 -65
59 -111 7 -30 5 -33 -21 -39 -15 -3 -44 -10 -63 -15 -42 -11 -50 -1 -50 64 0
48 13 85 34 99 14 9 20 10 41 2z"/>
<path d="M6872 9127 c-37 -39 -24 -99 25 -118 36 -13 78 5 93 40 30 74 -64
136 -118 78z"/>
<path d="M6289 9070 c-21 -11 -42 -32 -49 -50 -11 -28 -11 -34 7 -58 13 -18
31 -28 52 -30 48 -5 63 12 59 72 -3 47 -1 51 21 54 71 10 98 -24 80 -102 l-12
-53 -80 -18 c-153 -32 -207 -70 -207 -144 0 -73 67 -105 163 -77 70 20 67 21
67 -9 0 -18 10 -31 33 -45 39 -24 68 -25 113 -4 40 19 44 34 9 34 -14 0 -25 6
-25 13 0 6 16 71 35 142 45 169 45 187 -3 235 -21 21 -55 43 -77 49 -61 17
-145 13 -186 -9z m141 -211 c0 -27 -33 -135 -43 -141 -18 -12 -62 -9 -75 4
-15 15 -16 53 -2 79 6 10 32 30 58 44 54 27 62 29 62 14z"/>
<path d="M6769 8956 l22 -23 -22 -64 c-12 -35 -43 -116 -68 -179 -43 -106 -48
-115 -76 -120 -37 -7 -33 -10 93 -58 99 -38 133 -44 91 -14 -28 19 -25 31 56
242 36 95 65 174 63 175 -7 7 -159 65 -170 65 -6 0 -1 -11 11 -24z"/>
<path d="M3322 8907 c-79 -31 -95 -47 -46 -47 23 0 34 -21 110 -219 l28 -73
-19 -37 c-22 -39 -62 -53 -83 -29 -6 8 -38 85 -72 172 -33 87 -63 162 -65 166
-5 9 -153 -45 -170 -61 -5 -5 1 -9 17 -9 35 0 41 -9 93 -143 24 -65 54 -135
65 -157 22 -42 63 -70 105 -70 50 0 113 48 133 100 l10 25 13 -28 c7 -15 15
-26 19 -25 3 2 40 16 83 32 79 29 97 46 51 46 -29 0 -38 17 -125 247 -30 79
-56 143 -59 143 -3 -1 -42 -15 -88 -33z"/>
<path d="M7085 8840 c17 -19 17 -22 1 -62 -9 -24 -47 -101 -84 -173 -65 -124
-70 -130 -102 -135 -34 -5 -32 -6 68 -58 57 -30 106 -52 109 -49 2 3 -1 14 -9
26 -11 18 -5 36 57 161 65 132 72 141 106 151 43 13 79 -1 79 -31 0 -25 -133
-291 -154 -309 -9 -7 -23 -11 -31 -7 -8 3 -15 1 -15 -4 0 -5 45 -32 100 -60
55 -28 100 -46 100 -41 0 6 -4 13 -10 16 -20 12 -9 48 60 185 84 168 91 213
39 261 -37 34 -85 45 -140 31 -30 -8 -39 -7 -36 1 3 7 8 19 11 27 5 12 -13 25
-69 53 -85 42 -107 46 -80 17z"/>
<path d="M2732 8640 c-35 -16 -47 -29 -66 -72 -20 -46 -24 -50 -30 -30 -4 12
-12 22 -17 22 -15 0 -159 -81 -159 -90 0 -4 10 -5 23 -3 14 3 29 -3 42 -17 28
-31 275 -482 275 -502 0 -9 -7 -23 -15 -32 -8 -8 -12 -17 -8 -19 10 -6 217
109 221 123 3 7 -6 6 -23 -2 -23 -10 -29 -9 -49 13 -13 13 -42 58 -64 100
l-42 76 53 -5 c42 -3 58 0 86 20 61 41 76 71 75 146 -1 113 -74 230 -169 273
-51 24 -80 23 -133 -1z m81 -112 c43 -47 117 -189 117 -225 0 -57 -44 -83
-104 -63 -26 9 -41 29 -88 116 -67 121 -73 160 -33 200 33 32 58 26 108 -28z"/>
<path d="M7605 8491 c-77 -35 -151 -141 -162 -230 -7 -65 10 -112 57 -155 66
-60 138 -67 225 -23 45 23 33 34 -19 17 -66 -22 -136 34 -136 108 0 30 30 122
40 122 5 0 52 -27 105 -60 53 -33 100 -60 104 -60 17 0 45 85 45 134 0 65 -27
113 -80 143 -49 28 -123 30 -179 4z m175 -36 c17 -21 8 -81 -20 -127 l-22 -38
-51 33 c-28 18 -52 38 -54 44 -3 7 16 33 41 58 48 47 83 57 106 30z"/>
<path d="M5020 8313 c-46 -81 -91 -160 -100 -175 l-16 -27 -119 159 c-66 88
-122 156 -126 152 -3 -4 -40 -85 -80 -179 -41 -95 -77 -173 -80 -173 -3 0 -64
62 -134 138 -70 75 -131 138 -135 140 -3 1 -33 -83 -65 -188 -52 -171 -60
-189 -74 -176 -167 148 -286 244 -292 233 -3 -6 -21 -93 -39 -192 -18 -99 -34
-182 -36 -184 -1 -1 -75 47 -164 109 -89 61 -164 110 -166 107 -2 -2 -11 -89
-20 -193 -8 -104 -17 -191 -19 -193 -2 -2 -81 38 -174 88 -94 50 -173 91 -175
91 -3 0 -2 -90 1 -200 l6 -200 -183 75 c-101 41 -185 73 -187 71 -2 -2 8 -88
22 -191 14 -103 25 -191 25 -195 0 -4 -84 17 -187 46 -103 30 -189 51 -192 48
-3 -3 16 -89 41 -192 26 -103 46 -188 44 -189 -2 -2 -251 40 -368 61 l-27 5
30 -82 c17 -45 49 -131 70 -191 l39 -109 -82 6 c-46 4 -136 10 -201 13 l-117
7 86 -177 c48 -97 85 -179 83 -181 -2 -2 -89 -8 -192 -13 -103 -5 -190 -12
-193 -15 -3 -2 42 -78 99 -168 58 -90 104 -165 103 -166 -2 -2 -381 -63 -392
-63 -2 0 52 -70 121 -156 69 -86 124 -158 122 -160 -1 -2 -63 -19 -137 -39
-74 -20 -159 -43 -189 -51 l-53 -15 137 -140 c80 -81 134 -144 129 -149 -5 -4
-88 -38 -184 -75 -96 -38 -176 -68 -177 -69 -1 -1 68 -57 152 -125 85 -68 152
-128 149 -133 -3 -5 -63 -37 -132 -72 -70 -35 -146 -75 -170 -89 l-43 -24 161
-103 c88 -56 163 -106 166 -111 2 -5 -67 -56 -156 -115 -88 -59 -160 -110
-159 -113 0 -3 75 -42 166 -86 91 -44 172 -85 180 -90 12 -9 -16 -37 -139
-139 -84 -71 -154 -131 -155 -135 -2 -3 79 -35 178 -71 99 -35 182 -67 184
-70 2 -4 -57 -70 -132 -149 -74 -78 -134 -143 -132 -144 2 -2 85 -22 184 -46
99 -24 184 -47 189 -52 5 -4 -44 -76 -109 -159 -67 -86 -113 -155 -107 -159 5
-3 93 -17 194 -30 100 -13 184 -25 186 -26 2 -2 -40 -74 -94 -161 -53 -87 -99
-164 -101 -171 -4 -10 15 -13 83 -13 l88 0 -31 -32 c-18 -18 -44 -60 -59 -93
-26 -57 -27 -62 -15 -129 6 -38 10 -70 9 -71 -2 -1 -41 -26 -88 -55 -366 -225
-679 -512 -912 -835 -59 -81 -200 -307 -195 -311 1 -1 148 35 327 80 379 97
698 172 703 165 2 -2 -2 -67 -9 -144 -17 -192 -27 -649 -17 -824 l8 -144 97
146 c191 287 453 578 688 766 l105 84 85 -91 86 -92 119 15 c66 8 190 28 275
45 85 16 158 30 163 30 4 0 7 -18 7 -39 l0 -40 106 61 c73 42 127 65 172 75
36 7 67 11 70 9 2 -3 12 -80 22 -171 10 -91 19 -168 22 -170 2 -2 76 48 163
111 88 63 161 111 162 107 2 -5 21 -91 43 -192 22 -101 41 -185 43 -187 1 -2
68 55 147 126 80 72 147 130 150 130 3 0 33 -83 65 -185 33 -101 63 -185 66
-185 3 0 64 65 134 144 71 80 131 143 134 141 3 -2 42 -82 85 -178 44 -97 83
-174 87 -171 4 2 55 72 114 154 59 82 110 152 114 154 4 3 52 -71 107 -164 54
-92 102 -166 105 -164 3 2 48 78 99 169 51 91 96 164 101 163 4 -2 60 -72 123
-156 97 -130 116 -151 124 -135 5 10 40 88 77 173 36 85 70 159 74 163 4 4 30
-16 57 -45 27 -29 88 -94 135 -145 l86 -92 58 190 c32 104 62 188 66 187 4 -2
71 -57 148 -123 78 -66 145 -119 149 -118 4 1 23 86 42 188 20 102 39 186 44
187 4 0 77 -48 163 -107 85 -59 157 -104 160 -101 3 3 10 65 16 138 5 73 13
136 17 141 3 4 80 -8 171 -28 90 -19 178 -37 194 -39 17 -2 100 -15 185 -29
85 -14 178 -28 206 -31 l52 -6 96 102 c53 57 94 96 91 87 -4 -11 21 -36 82
-85 245 -193 504 -482 709 -792 l82 -122 7 106 c10 143 0 729 -15 877 -7 65
-9 121 -6 124 3 3 59 -6 123 -21 162 -38 864 -213 886 -221 9 -4 17 -4 17 -1
0 4 -32 59 -70 124 -170 283 -410 554 -689 778 -106 86 -361 261 -414 285 -19
9 -26 17 -21 28 3 9 8 42 11 73 10 98 -43 194 -135 248 l-36 22 43 -47 c79
-86 100 -176 51 -220 -11 -10 -21 -16 -23 -14 -17 29 -147 302 -145 304 2 2
90 7 196 11 105 4 192 11 192 16 0 5 -43 76 -95 159 -53 82 -98 156 -101 163
-4 10 36 20 173 40 98 15 185 31 195 34 13 6 -8 37 -109 162 -69 85 -121 155
-117 157 5 1 86 23 179 48 94 25 176 48 184 51 10 3 -29 49 -122 142 -75 76
-137 140 -137 144 0 4 83 39 185 79 102 40 182 75 178 79 -4 4 -64 52 -133
107 -69 55 -136 109 -149 120 l-24 20 176 92 c97 51 177 94 177 95 0 2 -74 50
-165 107 -90 57 -163 107 -162 112 1 4 75 56 164 115 l162 108 -187 93 c-152
76 -184 95 -171 105 80 59 298 251 292 257 -5 4 -73 30 -153 59 -80 29 -160
59 -178 66 l-34 14 136 142 c74 78 133 145 131 148 -2 3 -87 26 -189 50 -103
25 -186 47 -186 50 0 3 54 76 119 161 65 84 118 155 117 156 -1 1 -89 14 -196
28 -107 15 -196 28 -197 29 -1 1 44 78 101 171 l104 170 -195 7 c-108 4 -197
9 -200 11 -2 3 33 82 77 177 44 95 78 175 75 178 -2 3 -89 -2 -192 -10 -104
-9 -190 -15 -192 -13 -2 2 24 86 58 186 33 101 59 184 57 186 -2 3 -88 -12
-191 -32 -103 -20 -189 -34 -191 -32 -2 2 15 90 39 195 24 106 42 192 39 192
-2 0 -83 -25 -180 -55 -97 -30 -183 -55 -190 -55 -10 0 -13 8 -9 28 11 55 40
352 35 357 -2 3 -82 -29 -177 -70 -94 -41 -175 -75 -180 -75 -4 0 -6 91 -3
202 l5 202 -44 -26 c-146 -85 -298 -168 -308 -168 -6 0 -11 6 -11 13 0 23 -32
352 -36 365 -2 8 -65 -32 -164 -104 -89 -64 -163 -115 -164 -113 -2 2 -20 85
-41 184 -21 99 -41 185 -44 191 -4 7 -64 -41 -149 -118 -79 -72 -147 -127
-152 -122 -4 5 -34 89 -66 187 -32 97 -61 176 -65 175 -3 -2 -64 -67 -134
-146 -70 -79 -131 -139 -135 -135 -4 4 -38 76 -75 158 -37 83 -73 160 -79 173
-11 21 -18 13 -126 -138 -63 -88 -117 -160 -120 -160 -3 0 -51 77 -106 171
l-101 171 -83 -149z m392 -454 c68 -5 161 -16 208 -23 l85 -14 -162 -1 -163
-1 0 -27 c0 -16 -3 -45 -6 -65 l-6 -37 -22 32 c-13 19 -49 46 -90 67 -69 35
-69 35 -205 35 -125 0 -140 -2 -191 -26 -73 -34 -115 -75 -130 -125 -18 -61
-9 -457 11 -504 23 -51 80 -97 147 -117 83 -26 259 -24 328 4 117 46 153 100
157 238 l2 80 -152 3 -152 3 -3 -93 c-2 -76 -6 -93 -19 -96 -15 -3 -17 16 -21
169 -5 238 0 311 21 307 13 -3 16 -20 19 -106 l3 -103 152 3 151 3 0 90 -1 90
79 -3 78 -4 0 -294 0 -294 150 0 150 0 0 259 c0 142 3 273 6 290 l7 31 74 0
c41 0 72 -3 70 -7 -3 -5 -8 -34 -11 -65 -8 -64 -13 -96 -56 -328 -16 -91 -30
-168 -30 -172 0 -5 69 -8 154 -8 169 0 166 -1 166 65 0 49 9 65 36 65 21 0 24
-5 24 -34 0 -18 3 -48 6 -65 l7 -31 154 0 155 0 -5 23 c-3 12 -18 85 -32 162
-25 133 -61 310 -72 348 -2 9 0 17 4 17 20 0 375 -182 478 -245 1229 -749
1879 -2172 1644 -3595 -88 -532 -301 -1042 -623 -1488 l-81 -113 -60 4 c-33 3
-71 8 -85 11 -14 3 -54 8 -90 11 -36 2 -135 16 -220 30 -85 14 -200 32 -255
40 -55 9 -107 18 -115 21 -8 3 -31 8 -50 10 -19 3 -73 11 -120 20 -47 8 -96
17 -110 19 -183 29 -251 39 -400 60 -96 13 -186 25 -199 27 -20 2 -9 13 63 56
540 330 911 876 1016 1497 12 70 19 142 17 161 -3 19 -1 36 3 39 5 3 8 19 8
36 -1 18 -4 25 -9 18 -4 -7 -6 -21 -4 -31 2 -10 -1 -18 -6 -18 -5 0 -9 7 -7
16 2 9 -4 20 -12 25 -8 4 -139 19 -290 31 l-275 23 -3 43 -3 42 -65 0 -64 0 0
80 0 79 -72 3 -72 3 -1 30 c-1 17 -2 60 -3 98 l-2 67 -480 0 c-313 0 -480 -3
-480 -10 0 -7 163 -10 470 -10 l470 0 0 -82 c1 -46 7 -360 14 -698 8 -338 13
-616 11 -618 -1 -2 -61 8 -131 22 -415 80 -795 47 -1074 -94 -85 -43 -75 -55
13 -15 310 143 655 171 1074 86 76 -16 139 -28 140 -27 1 1 -14 745 -22 1019
l-5 207 60 0 c54 0 60 -2 64 -22 6 -29 30 -1368 25 -1372 -2 -2 -56 7 -119 20
-218 44 -358 57 -565 51 -203 -6 -277 -18 -429 -68 -88 -29 -92 -30 -306 -30
-214 0 -218 1 -306 30 -149 49 -226 62 -420 68 -210 6 -350 -5 -557 -47 -78
-16 -142 -28 -142 -27 0 1 5 245 11 542 7 297 13 611 13 698 l1 157 65 0 66 0
-6 -242 c-8 -296 -22 -983 -21 -984 1 -1 63 11 139 27 419 85 764 57 1074 -86
88 -40 98 -28 13 15 -279 141 -659 174 -1074 94 -70 -14 -129 -24 -131 -22 -1
2 4 269 11 593 7 325 13 638 13 698 l1 107 445 0 c296 0 445 3 445 10 0 7
-155 10 -462 10 -463 -1 -463 -1 -466 20 -4 27 5 23 -337 116 -159 43 -292 82
-293 86 -2 5 -8 6 -13 2 -5 -3 -9 0 -9 6 0 6 -5 8 -12 4 -7 -4 -8 -3 -4 5 4 6
11 9 16 6 5 -3 12 0 17 7 11 19 13 39 2 32 -5 -3 -9 0 -9 6 0 6 -3 9 -7 7 -5
-3 -9 6 -9 19 l-2 24 17 -22 c14 -17 18 -18 18 -5 0 9 -4 14 -9 11 -4 -3 -8 4
-8 16 0 14 -4 19 -12 14 -10 -6 -10 -4 -2 7 6 8 10 26 9 41 -1 15 2 25 7 22 4
-3 6 -9 4 -13 -3 -4 1 -8 8 -8 7 0 13 6 13 13 0 7 -4 11 -9 8 -4 -3 -8 1 -8
10 0 8 -3 23 -6 33 -5 15 -4 15 5 3 9 -13 11 -13 11 3 0 9 -6 17 -12 17 -7 0
-2 6 12 13 14 8 24 19 23 25 -2 7 14 4 40 -7 23 -10 112 -49 197 -86 325 -141
380 -163 380 -152 0 7 5 5 10 -3 8 -13 10 -12 10 3 0 9 -5 17 -12 17 -6 0 -8
3 -4 7 4 5 14 -1 22 -11 8 -11 14 -15 14 -9 0 7 -7 19 -16 27 -8 9 -12 16 -7
16 5 0 14 -5 21 -12 9 -9 10 -4 2 20 -5 18 -5 30 -1 28 4 -3 17 5 28 18 18 21
19 24 4 35 -14 11 -14 11 3 6 15 -4 17 -3 7 9 -9 11 -9 16 0 22 8 5 10 3 4 -7
-7 -12 -6 -12 6 0 12 11 12 14 0 18 -9 4 -10 8 -2 12 13 9 30 -4 -319 240
l-274 193 -19 -23 c-115 -142 -281 -509 -343 -758 -42 -172 -49 -242 -49 -526
0 -257 2 -276 28 -400 79 -367 242 -709 469 -980 146 -175 356 -356 541 -465
42 -25 77 -47 77 -50 0 -3 -80 -15 -177 -28 -98 -13 -218 -30 -268 -38 -161
-26 -389 -64 -440 -74 -166 -31 -552 -91 -615 -95 -41 -3 -93 -10 -115 -16
-23 -6 -59 -9 -80 -7 -38 3 -43 8 -120 115 -377 529 -597 1116 -655 1753 -13
147 -13 472 0 620 99 1102 705 2092 1645 2685 107 67 419 231 481 252 l31 11
-13 -74 c-7 -41 -15 -78 -18 -83 -3 -5 -8 -33 -12 -62 -6 -57 -41 -269 -51
-306 l-5 -23 161 0 161 0 0 34 c0 67 11 96 35 96 21 0 23 -6 30 -65 l7 -65
303 0 303 0 3 328 c2 180 2 353 1 385 l-4 57 -56 1 -57 1 82 14 c193 33 546
43 775 23z m-187 -94 c85 -43 98 -65 103 -180 l4 -95 -106 0 -106 0 0 68 c0
93 -14 138 -45 146 -38 10 -75 -4 -86 -31 -5 -13 -9 -122 -9 -241 0 -247 4
-265 60 -270 56 -5 69 12 76 101 4 44 12 77 18 78 6 0 53 2 104 2 l92 2 0 -55
c0 -102 -27 -152 -102 -191 -59 -30 -172 -43 -259 -30 -101 16 -148 44 -179
105 -23 48 -24 57 -24 265 1 182 3 221 17 248 25 48 86 88 162 107 11 3 65 4
120 3 89 -2 107 -6 160 -32z m-1040 3 c10 -41 135 -672 135 -680 0 -4 -49 -8
-109 -8 l-109 0 -7 65 -7 65 -63 0 -64 0 -5 -32 c-3 -18 -7 -46 -8 -63 l-3
-30 -113 -3 -114 -3 6 28 c3 15 31 170 61 343 31 173 58 321 60 328 3 9 46 12
169 12 163 0 166 0 171 -22z m181 -70 c-4 -51 -6 -97 -5 -103 4 -22 9 -499 5
-495 -5 6 -82 385 -91 450 -4 25 -13 70 -20 100 -29 120 -33 107 37 123 35 9
67 16 72 16 5 1 6 -38 2 -91z m264 -263 l0 -355 -110 0 -110 0 0 355 0 355
110 0 110 0 0 -355z m1310 295 l0 -60 -75 0 -75 0 0 -295 0 -295 -110 0 -110
0 0 295 0 295 -75 0 -75 0 0 53 c0 30 3 57 7 60 3 4 120 7 260 7 l253 0 0 -60z
m460 57 c0 -2 32 -160 70 -352 39 -192 70 -350 70 -352 0 -2 -49 -3 -109 -3
l-108 0 -7 38 c-3 20 -6 49 -6 65 0 27 -1 27 -64 27 -69 0 -76 -6 -76 -58 -1
-71 -1 -72 -121 -72 -60 0 -109 4 -109 8 0 18 122 686 126 694 5 7 334 12 334
5z m-391 -44 c0 -10 -4 -36 -8 -58 -9 -40 -9 -39 -10 18 0 32 3 57 9 57 6 0
10 -8 9 -17z m-2756 -2498 c4 -8 2 -17 -3 -20 -6 -4 -10 3 -10 14 0 25 6 27
13 6z m-28 -264 c3 -5 1 -12 -5 -16 -5 -3 -10 1 -10 9 0 18 6 21 15 7z m625
-250 c0 -10 7 -24 16 -32 13 -10 15 -29 11 -98 l-4 -86 -71 -3 -72 -3 0 -79 0
-80 -80 0 -80 0 0 -27 c0 -16 -4 -33 -8 -39 -7 -12 -82 -22 -209 -28 -61 -3
-71 -2 -66 12 5 11 3 13 -8 7 -8 -4 -11 -5 -7 0 4 4 1 19 -6 34 -14 29 -14 40
-3 58 15 23 16 50 2 50 -8 0 -12 -3 -10 -7 2 -4 -2 -7 -9 -7 -11 0 -12 4 -3
18 6 10 14 16 17 14 4 -2 7 2 7 9 0 7 -6 13 -13 13 -7 0 -11 -4 -8 -8 2 -4 0
-10 -5 -14 -6 -3 -8 6 -5 21 3 14 1 23 -5 20 -5 -3 -7 10 -5 29 1 20 -1 33 -5
31 -4 -3 -8 1 -8 9 0 8 3 13 5 10 3 -3 10 -1 17 5 7 6 116 3 298 -8 191 -12
287 -14 287 -7 0 5 5 3 10 -5 8 -13 10 -12 10 3 0 9 -4 17 -10 17 -5 0 -10 5
-10 11 0 5 5 7 12 3 7 -5 9 -2 5 8 -3 9 0 21 6 27 15 15 -5 14 -23 -1 -12 -11
-12 -10 -1 5 7 9 21 17 30 17 13 0 14 2 1 9 -8 6 -19 7 -25 4 -5 -3 -4 0 2 7
8 9 9 18 3 25 -7 8 -5 12 5 12 8 0 11 -5 8 -10 -3 -6 -1 -7 5 -3 6 4 9 13 6
21 -4 8 -9 13 -13 11 -3 -2 -6 7 -6 20 0 13 3 24 8 24 4 0 7 -8 7 -19z m-586
-346 c-4 -8 -11 -12 -16 -9 -6 4 -5 10 3 15 19 12 19 11 13 -6z m4026 -239 c0
-3 -4 -8 -10 -11 -5 -3 -10 -1 -10 4 0 6 5 11 10 11 6 0 10 -2 10 -4z m-3734
-253 c-3 -49 -6 -107 -7 -130 -1 -24 -7 -43 -12 -43 -5 0 -7 8 -5 18 3 11 0
19 -7 19 -8 0 -12 -9 -9 -20 2 -11 0 -16 -4 -13 -4 4 -7 11 -7 14 0 4 -5 14
-10 22 -5 8 -10 21 -11 28 -1 7 -16 42 -33 79 -18 36 -28 70 -24 74 9 8 100
37 121 38 11 1 12 -18 8 -86z m3352 27 c97 -28 184 -54 192 -57 8 -3 18 -5 23
-5 4 1 7 -7 7 -19 0 -11 -4 -17 -10 -14 -6 4 -7 -1 -3 -11 4 -12 3 -15 -5 -10
-8 5 -10 1 -5 -10 4 -12 3 -15 -6 -10 -7 5 -10 2 -9 -6 2 -7 -2 -12 -9 -11 -8
2 -10 -4 -6 -14 4 -10 2 -14 -4 -10 -7 5 -9 0 -6 -13 3 -11 9 -17 14 -14 5 3
7 9 4 14 -2 4 4 19 15 33 11 14 27 41 35 59 8 18 14 27 15 20 0 -7 -8 -27 -17
-45 -9 -18 -16 -36 -15 -40 1 -5 -2 -6 -8 -2 -5 3 -11 1 -11 -4 -3 -21 -4 -26
-12 -39 -5 -7 -13 -10 -18 -7 -5 4 -9 -1 -9 -9 0 -26 -1 -30 -12 -43 -6 -7
-14 -10 -19 -7 -5 3 -10 -2 -10 -10 -3 -29 -4 -34 -11 -42 -4 -3 -6 2 -4 13 3
11 -1 20 -7 20 -7 0 -12 -14 -11 -34 1 -18 -2 -35 -7 -38 -4 -3 -6 3 -4 13 2
10 -2 19 -8 19 -7 0 -12 -14 -11 -33 1 -18 -3 -32 -8 -31 -6 1 -12 -6 -13 -16
-2 -11 -6 -22 -9 -25 -12 -11 0 36 12 50 9 12 9 15 -3 15 -7 0 -13 -5 -12 -11
1 -6 -3 -10 -8 -9 -6 1 -10 -14 -9 -32 1 -21 -3 -33 -10 -32 -6 1 -10 -4 -8
-11 1 -6 -3 -11 -10 -10 -7 2 -12 -2 -13 -9 0 -6 -3 -14 -7 -18 -18 -18 1 28
20 48 16 17 18 24 8 24 -8 0 -14 -5 -13 -11 1 -6 -4 -10 -10 -8 -7 1 -12 -4
-10 -10 1 -7 -3 -12 -8 -11 -6 1 -10 -14 -9 -32 1 -21 -3 -33 -10 -32 -6 1
-10 -4 -8 -11 1 -6 -3 -11 -10 -10 -7 2 -12 -2 -13 -9 0 -6 -3 -14 -7 -18 -18
-18 1 28 20 48 16 17 18 24 8 24 -8 0 -14 -5 -13 -11 1 -6 -4 -10 -10 -8 -7 1
-12 -4 -10 -10 1 -7 -3 -12 -9 -11 -6 1 -9 -8 -7 -20 3 -15 -3 -29 -19 -42
-13 -11 -20 -16 -16 -11 4 5 4 14 -1 20 -13 17 -24 656 -11 656 6 0 91 -23
188 -50z m-3358 -216 c0 -8 -19 -13 -24 -6 -3 5 1 9 9 9 8 0 15 -2 15 -3z
m2608 -699 c34 -4 62 -11 62 -15 0 -4 12 -6 26 -4 25 2 25 2 8 -17 -9 -10 -20
-16 -25 -14 -4 3 -10 1 -14 -5 -4 -6 -10 -8 -15 -5 -5 3 -14 -3 -20 -12 -10
-16 -11 -16 -6 -1 3 10 1 20 -5 23 -5 4 -9 3 -8 -2 4 -21 -2 -34 -13 -27 -8 5
-9 2 -4 -12 4 -10 4 -15 0 -11 -4 4 -14 1 -22 -6 -10 -7 -13 -8 -9 -1 4 7 1
17 -7 23 -11 9 -13 6 -11 -12 2 -18 -2 -23 -20 -23 -13 0 -21 4 -19 8 3 5 9 6
14 3 5 -3 11 -1 14 4 4 5 2 12 -3 15 -5 4 -12 2 -16 -4 -4 -6 -10 -8 -15 -5
-4 3 -7 -5 -6 -18 3 -20 -1 -23 -28 -23 -17 1 -30 -4 -29 -10 1 -6 -13 -10
-30 -10 -18 1 -31 -4 -30 -10 1 -7 -14 -10 -38 -9 -33 2 -39 -1 -34 -14 3 -8
3 -12 -1 -8 -4 4 -14 1 -22 -6 -11 -8 -14 -8 -9 0 4 6 3 14 -2 17 -5 3 -12 -1
-15 -10 -5 -14 -9 -14 -23 -3 -15 12 -16 12 -11 -3 4 -9 2 -15 -5 -14 -23 3
-37 17 -30 29 5 8 2 8 -9 0 -8 -7 -19 -9 -23 -5 -5 4 -5 1 -1 -6 4 -7 13 -9
19 -6 7 4 8 3 4 -2 -5 -5 -18 -9 -30 -9 -12 -1 -21 -6 -20 -12 1 -6 -5 -10
-15 -8 -9 1 -23 -3 -31 -9 -11 -8 -13 -8 -8 1 4 6 2 15 -5 20 -19 11 -57 11
-55 -1 1 -5 -5 -10 -13 -11 -8 0 -14 -6 -13 -11 1 -8 -66 -12 -74 -4 -2 1 -12
4 -23 5 -11 1 -21 4 -22 5 -6 5 -220 5 -223 0 -2 -3 45 -5 105 -5 60 0 106 -3
104 -7 -3 -5 -9 -6 -14 -3 -5 3 -11 2 -14 -3 -4 -7 -137 -9 -143 -2 -8 7 -30
5 -41 -4 -9 -7 -12 -5 -10 4 2 9 -6 14 -20 15 -12 0 -27 7 -33 15 -8 12 -9 12
-7 -4 2 -15 -3 -20 -24 -21 -15 -1 -26 1 -25 6 1 4 -2 7 -8 7 -5 0 -9 -5 -7
-11 2 -6 -4 -5 -12 3 -9 7 -16 9 -16 4 0 -4 -5 -3 -12 4 -9 9 -15 9 -27 -1 -8
-6 -12 -7 -9 -2 4 6 -1 19 -9 30 -12 16 -14 16 -10 3 6 -18 -8 -34 -17 -20 -7
11 -46 9 -66 -3 -12 -7 -13 -6 -3 7 16 18 5 32 -13 17 -10 -9 -15 -7 -20 5 -3
9 -10 13 -15 10 -5 -3 -6 -11 -2 -17 5 -8 2 -8 -9 0 -8 7 -18 10 -22 6 -4 -4
-4 1 0 10 4 12 2 17 -7 15 -8 -2 -13 3 -11 10 1 8 -2 11 -8 7 -6 -3 -8 -10 -5
-15 3 -4 -3 -7 -12 -5 -10 1 -25 -3 -33 -9 -13 -9 -13 -9 -2 6 8 10 9 19 3 22
-5 4 -12 2 -16 -4 -10 -15 -25 -2 -26 23 -1 20 -2 20 -9 -3 -6 -19 -8 -20 -9
-6 -1 14 -4 16 -14 7 -17 -13 -27 -5 -28 23 -1 18 -2 18 -9 -4 -7 -22 -8 -22
-10 -5 -1 11 -1 25 0 30 1 6 -2 7 -6 3 -4 -4 -14 -2 -22 5 -10 7 -13 8 -9 1 4
-7 1 -17 -7 -23 -11 -9 -13 -6 -10 15 1 14 0 23 -3 20 -4 -3 -13 0 -21 7 -11
8 -14 8 -9 0 4 -6 3 -14 -3 -18 -10 -6 -15 9 -10 30 1 6 -2 7 -6 3 -4 -4 -14
-2 -22 5 -10 7 -13 8 -9 1 4 -7 0 -17 -8 -24 -13 -11 -14 -10 -9 5 5 13 4 16
-4 11 -11 -7 -17 6 -13 27 1 5 -3 6 -8 2 -6 -3 -8 -13 -5 -23 5 -14 4 -15 -5
-2 -6 8 -15 16 -21 16 -5 1 -12 3 -15 4 -3 1 -10 3 -17 4 -6 0 -13 8 -15 16
-4 12 -3 12 5 2 7 -11 10 -11 15 3 4 9 3 13 -2 10 -5 -3 -12 -1 -16 5 -8 13
-25 13 -25 -1 0 -5 4 -7 10 -4 6 4 7 -1 3 -11 -5 -15 -7 -14 -16 2 -6 11 -15
22 -20 25 -16 11 255 9 331 -2 99 -14 165 -38 239 -86 89 -57 166 -76 294 -71
110 4 133 12 299 103 63 34 153 55 273 63 102 7 308 1 425 -13z m-1670 -100
c-3 -3 -9 2 -12 12 -6 14 -5 15 5 6 7 -7 10 -15 7 -18z m47 -4 c3 -5 2 -12 -3
-15 -5 -3 -9 1 -9 9 0 17 3 19 12 6z m53 -36 c-3 -3 -9 2 -12 12 -6 14 -5 15
5 6 7 -7 10 -15 7 -18z m1019 -101 c0 -10 -10 -11 -35 -5 -2 1 -1 5 2 9 8 13
33 10 33 -4z m-3657 -373 c0 -7 -117 -262 -124 -268 -1 -1 -21 3 -44 9 -115
29 -135 124 -49 241 20 26 23 27 119 27 54 0 98 -4 98 -9z m3123 -132 c71 -19
128 -86 157 -186 12 -37 17 -42 51 -48 21 -4 43 -4 48 0 12 7 482 -32 529 -45
17 -4 32 -5 32 -2 0 4 -13 30 -29 58 -31 53 -79 96 -134 119 -58 24 -74 64
-35 89 22 13 70 -11 134 -67 57 -50 81 -85 104 -150 19 -55 33 -64 98 -66 29
-1 32 -4 32 -31 0 -29 -1 -30 -50 -30 -33 0 -50 -4 -50 -12 -2 -57 -38 -420
-43 -424 -3 -3 -21 -2 -40 1 -33 6 -35 9 -31 38 5 37 34 368 34 389 0 8 -20
18 -53 26 -67 15 -87 15 -87 0 0 -26 -32 -384 -36 -405 -3 -16 -11 -23 -28
-23 -48 0 -53 7 -48 64 l4 53 -71 -1 c-77 0 -104 13 -145 68 -19 25 -21 40
-18 156 l2 129 -27 3 c-16 2 -52 1 -80 0 l-53 -4 0 -91 c0 -51 -3 -149 -7
-219 l-6 -128 -40 0 -40 0 7 123 c3 67 7 167 7 222 l2 100 -37 0 c-20 -1 -63
-2 -96 -3 l-60 -2 0 -70 0 -70 -57 0 c-112 0 -163 -30 -163 -95 1 -52 41 -85
106 -85 35 0 36 1 30 30 -5 27 -2 32 21 41 49 18 123 -30 123 -80 0 -4 -11
-13 -25 -19 l-26 -12 26 -37 25 -38 -37 -16 -38 -17 -20 42 -20 41 -55 -3
c-64 -3 -131 26 -164 70 -29 40 -33 124 -7 165 30 49 64 65 141 71 l70 5 0 33
0 34 -140 0 -140 0 0 29 0 29 173 7 c123 6 166 11 151 17 -48 22 -59 113 -21
169 20 31 77 69 102 69 6 0 27 -5 48 -11z m-945 -338 c4 -29 -12 -41 -55 -41
-40 0 -40 14 -8 -245 14 -110 25 -201 25 -202 0 -2 -18 -3 -40 -3 -22 0 -40 3
-40 8 -2 29 -29 215 -33 218 -2 3 -34 2 -71 -2 l-66 -7 0 -64 c0 -35 -5 -73
-11 -85 -14 -26 -68 -48 -117 -48 -82 0 -146 82 -124 157 12 38 4 43 -69 43
-86 0 -139 -40 -139 -106 0 -53 32 -95 91 -118 34 -14 39 -19 33 -39 -10 -34
-15 -36 -67 -22 -164 42 -186 260 -34 334 32 15 63 21 114 21 84 0 103 -6 103
-31 0 -23 -1 -23 43 -4 20 8 48 15 62 15 21 0 25 4 21 23 -3 12 -8 43 -11 68
l-6 45 -92 -12 c-51 -7 -160 -22 -243 -33 -211 -28 -224 -30 -224 -50 0 -9 11
-106 25 -216 19 -155 22 -201 12 -207 -18 -12 -67 -9 -67 3 0 17 -52 424 -54
426 -5 5 -105 -10 -117 -17 -10 -7 -8 -44 10 -192 12 -101 24 -197 27 -214 5
-30 4 -32 -31 -38 -20 -4 -39 -6 -40 -4 -2 2 -9 44 -15 93 -17 139 -13 131
-63 127 -42 -4 -45 -2 -50 25 -3 15 -4 30 -2 31 2 2 22 6 44 9 46 6 48 12 35
107 -6 44 -8 46 -40 46 -31 0 -34 3 -34 29 0 28 1 28 83 39 95 13 250 34 457
63 313 43 736 97 755 95 13 0 21 -9 23 -25z m2647 -75 c56 -24 69 -54 62 -146
l-6 -78 42 -7 c23 -3 54 -8 68 -11 25 -5 27 -2 33 43 4 26 9 65 12 85 6 36 5
37 -33 40 -31 2 -39 7 -41 27 -2 13 0 27 5 32 9 9 245 -20 253 -31 3 -4 88
-17 190 -29 264 -31 250 -28 250 -64 l0 -30 -50 6 c-27 3 -50 3 -50 -2 0 -4
-11 -97 -25 -207 -14 -109 -25 -205 -25 -212 0 -9 -12 -12 -37 -10 -38 3 -38
3 -37 46 l1 43 -42 -6 c-129 -20 -237 88 -205 204 22 82 95 127 187 114 49 -7
48 -6 58 -50 l7 -33 -59 6 c-53 6 -62 4 -85 -17 -40 -36 -41 -87 -3 -124 19
-20 34 -25 73 -25 75 0 79 7 97 154 9 71 15 130 13 131 -2 1 -64 10 -138 19
-74 9 -152 22 -173 28 -29 9 -40 9 -46 0 -4 -7 -19 -103 -34 -214 -16 -111
-30 -204 -32 -208 -6 -10 -66 1 -71 14 -2 6 2 52 10 101 9 58 10 92 4 96 -15
10 -118 20 -129 14 -5 -4 -9 -17 -9 -31 0 -37 -25 -91 -48 -103 -26 -14 -92
-14 -126 -1 -33 12 -66 66 -66 108 0 77 59 128 136 119 l42 -4 7 64 c8 73 -3
96 -44 91 -31 -4 -42 -43 -16 -62 14 -10 12 -14 -19 -29 -35 -16 -37 -16 -56
3 -22 22 -26 70 -9 101 14 28 69 59 102 59 15 0 43 -6 62 -14z m-4052 -103
c57 -29 71 -121 27 -168 l-20 -22 37 -24 c46 -29 63 -61 63 -116 0 -86 -83
-142 -210 -143 -105 0 -146 27 -170 111 -9 30 1 39 46 39 15 0 24 -6 24 -15 0
-9 11 -27 25 -40 18 -19 35 -25 70 -25 48 0 114 22 127 43 18 28 8 65 -24 92
-29 24 -38 27 -95 23 l-63 -4 0 28 c0 15 0 31 0 36 -1 4 18 10 41 14 84 15
125 72 79 110 -43 35 -124 16 -148 -35 -11 -22 -20 -27 -49 -27 -35 0 -35 1
-29 32 19 95 165 144 269 91z m5008 -133 c22 -12 27 -68 7 -88 -28 -28 -98 -1
-98 37 0 26 29 61 51 61 11 0 29 -5 40 -10z m-27 -226 c23 -22 20 -71 -3 -84
-41 -22 -91 2 -91 43 0 48 61 74 94 41z m516 -18 c0 -2 -8 -10 -17 -17 -16
-13 -17 -12 -4 4 13 16 21 21 21 13z m-6149 -33 c13 -16 12 -17 -3 -4 -10 7
-18 15 -18 17 0 8 8 3 21 -13z m40 -50 c13 -16 12 -17 -3 -4 -10 7 -18 15 -18
17 0 8 8 3 21 -13z m50 -60 c13 -16 12 -17 -3 -4 -17 13 -22 21 -14 21 2 0 10
-8 17 -17z m5919 -27 c0 -2 -8 -10 -17 -17 -16 -13 -17 -12 -4 4 13 16 21 21
21 13z m-5859 -43 c13 -16 12 -17 -3 -4 -17 13 -22 21 -14 21 2 0 10 -8 17
-17z m3411 -14 c185 -9 293 -19 388 -33 19 -3 55 -8 80 -12 25 -4 59 -6 75 -5
29 2 236 -26 242 -33 8 -7 -337 -117 -457 -145 -297 -71 -513 -95 -835 -95
-426 0 -755 55 -1157 191 -76 26 -136 48 -135 50 5 4 205 33 229 32 28 -1 132
9 173 16 69 12 212 26 356 34 229 12 810 12 1041 0z m2388 -12 c0 -2 -10 -12
-22 -23 l-23 -19 19 23 c18 21 26 27 26 19z m-5725 -57 c10 -11 16 -20 13 -20
-3 0 -13 9 -23 20 -10 11 -16 20 -13 20 3 0 13 -9 23 -20z"/>
<path d="M4930 6486 c0 -21 56 -559 64 -608 3 -20 16 -37 16 -21 0 6 13 13 29
15 17 2 28 1 26 -3 -3 -4 2 -10 11 -13 8 -3 12 -2 9 4 -3 6 -3 10 2 11 4 0 18
2 30 3 14 2 20 -2 16 -8 -4 -6 1 -5 10 3 14 11 17 11 17 0 0 -9 3 -10 8 -4 9
13 65 14 74 1 3 -5 9 15 12 45 12 104 46 519 46 559 l0 40 -185 0 -185 0 0
-24z"/>
<path d="M4415 6396 c-191 -69 -218 -82 -210 -107 19 -58 287 -586 303 -596
15 -9 19 -8 19 3 0 7 -4 11 -9 8 -4 -3 -8 0 -8 6 0 7 8 9 20 5 16 -5 19 -3 14
12 -6 16 -5 16 10 -2 16 -19 17 -19 12 -1 -5 15 -4 17 8 7 10 -8 16 -9 21 -1
3 6 11 8 16 5 5 -4 6 2 2 12 -6 15 -4 16 9 6 8 -7 18 -9 22 -5 4 4 13 7 19 7
5 0 12 7 14 15 4 13 3 13 -7 0 -10 -13 -11 -13 -7 0 2 9 16 15 34 15 18 0 29
4 25 9 -3 6 -7 20 -8 32 -2 19 -25 104 -129 489 -18 65 -36 120 -41 121 -5 2
-63 -16 -129 -40z m228 -631 c-3 -9 -8 -14 -10 -11 -3 3 -2 9 2 15 9 16 15 13
8 -4z m-50 -22 c-3 -7 -6 -13 -8 -13 -2 0 -5 6 -8 13 -3 8 1 14 8 14 7 0 11
-6 8 -14z"/>
<path d="M5670 6398 c-7 -24 -42 -156 -80 -293 -66 -245 -75 -295 -55 -296 6
0 16 -5 23 -11 8 -7 12 -7 12 1 0 10 -14 15 -33 12 -5 -1 -6 3 -2 9 4 6 13 7
23 1 9 -5 21 -9 27 -9 5 0 12 -9 16 -19 7 -17 8 -16 8 2 1 18 3 17 14 -5 7
-14 17 -25 22 -25 6 0 16 -4 24 -9 10 -6 12 -5 9 5 -3 8 -13 13 -23 12 -12 -1
-14 2 -6 10 7 7 16 6 30 -7 11 -10 24 -15 30 -12 5 4 13 1 17 -5 4 -7 3 -9 -2
-6 -6 3 -16 1 -24 -4 -12 -7 -11 -8 5 -6 11 1 26 7 34 11 10 7 12 5 6 -4 -5
-8 -3 -11 5 -8 7 2 75 131 150 285 l138 281 -67 30 c-68 31 -216 84 -263 96
-25 6 -28 3 -38 -36z"/>
<path d="M3794 6052 c-39 -31 -102 -85 -139 -118 l-69 -62 130 -124 c253 -243
377 -357 385 -353 4 3 10 -1 13 -7 3 -7 4 -2 3 12 -1 16 3 24 11 22 6 -1 12 3
12 9 0 5 5 7 10 4 6 -3 10 4 11 17 0 22 1 22 9 3 8 -19 9 -19 9 3 1 12 6 22
12 22 5 0 7 -5 3 -12 -5 -7 -3 -8 5 -3 9 5 10 10 2 18 -7 7 -2 18 17 36 15 14
30 25 33 24 4 -1 9 6 11 15 6 20 -361 546 -383 549 -8 2 -46 -23 -85 -55z"/>
<path d="M6307 6058 c-19 -29 -96 -138 -171 -243 l-135 -190 21 -22 c12 -12
25 -20 31 -16 6 4 7 1 2 -6 -5 -9 -13 -7 -30 9 -17 16 -25 18 -30 9 -5 -7 -4
-10 2 -6 6 4 18 -2 28 -13 10 -11 21 -17 26 -14 11 6 30 -31 21 -41 -4 -4 3
-2 16 4 12 6 23 9 23 6 1 -3 2 -11 3 -17 0 -7 8 -13 16 -13 8 -1 14 -7 12 -14
-2 -8 3 -11 12 -8 9 4 18 1 22 -5 4 -6 3 -8 -3 -5 -12 8 -39 -20 -29 -30 3 -3
6 -1 6 5 0 7 7 12 16 12 8 0 12 -5 9 -11 -4 -6 4 -5 16 3 27 15 126 106 318
292 l134 131 -59 53 c-76 70 -219 182 -232 182 -5 0 -25 -24 -45 -52z"/>
<path d="M5020 5856 c0 -2 9 -6 20 -9 11 -3 18 -1 14 4 -5 9 -34 13 -34 5z"/>
<path d="M6810 5586 c-25 -18 -139 -99 -255 -179 -193 -134 -210 -148 -210
-176 0 -16 3 -27 6 -25 4 2 14 -14 23 -35 8 -22 21 -43 28 -47 9 -5 8 -1 -2
12 -14 17 -14 18 1 6 11 -8 16 -26 15 -47 -1 -26 2 -34 14 -32 10 1 15 -6 14
-19 -1 -22 0 -21 70 8 166 71 522 230 529 238 5 4 -8 41 -29 81 -38 76 -145
249 -154 249 -3 0 -25 -16 -50 -34z"/>
<path d="M4224 5514 c-20 -21 -20 -22 -3 -21 10 1 16 3 14 6 -3 2 0 10 7 18
19 23 4 20 -18 -3z"/>
<path d="M6395 5100 c3 -5 8 -10 11 -10 2 0 4 5 4 10 0 6 -5 10 -11 10 -5 0
-7 -4 -4 -10z"/>
<path d="M3223 5083 c0 -9 4 -10 14 -2 7 6 13 12 13 14 0 1 -6 2 -13 2 -8 0
-14 -6 -14 -14z"/>
<path d="M3931 5054 c0 -11 3 -14 6 -6 3 7 2 16 -1 19 -3 4 -6 -2 -5 -13z"/>
<path d="M6856 4885 c-169 -46 -316 -87 -325 -91 -9 -4 -20 -6 -25 -5 -5 1 -6
-5 -3 -12 3 -8 0 -20 -6 -27 -9 -10 -9 -11 1 -6 8 5 12 0 12 -13 0 -10 -6 -22
-12 -25 -7 -4 -3 -4 10 -2 19 4 21 2 11 -10 -6 -7 -15 -12 -19 -9 -5 3 -3 -6
3 -19 8 -16 14 -21 19 -13 6 9 8 9 8 0 0 -6 -4 -14 -9 -17 -5 -3 -7 -15 -4
-26 3 -11 10 -17 15 -14 6 4 5 -2 -1 -14 -14 -26 -14 -42 0 -42 5 0 8 3 6 8
-3 4 16 6 41 4 26 -2 180 6 342 17 162 12 306 21 319 21 23 0 24 2 17 61 -9
87 -68 319 -80 318 -6 -1 -150 -39 -320 -84z"/>
<path d="M6490 4621 c0 -6 4 -13 10 -16 6 -3 7 1 4 9 -7 18 -14 21 -14 7z"/>
<path d="M6505 4580 c3 -5 8 -10 11 -10 2 0 4 5 4 10 0 6 -5 10 -11 10 -5 0
-7 -4 -4 -10z"/>
<path d="M7296 4253 c-6 -14 -5 -15 5 -6 7 7 10 15 7 18 -3 3 -9 -2 -12 -12z"/>
<path d="M4496 4078 c17 -58 44 -122 70 -165 39 -67 128 -158 193 -197 62 -37
182 -83 239 -91 93 -14 112 -14 112 -3 0 7 7 3 15 -8 8 -10 14 -14 15 -9 0 18
-18 38 -28 31 -6 -3 -13 -2 -17 4 -8 13 -25 13 -25 -1 0 -5 4 -8 9 -4 5 3 12
2 15 -3 2 -4 -6 -8 -18 -8 -18 0 -22 4 -18 21 4 20 4 20 -11 0 -13 -16 -16
-17 -20 -5 -17 53 -17 52 -31 41 -10 -8 -16 -9 -21 -1 -3 6 -10 8 -14 6 -4 -3
-6 12 -5 33 1 26 -2 38 -12 38 -10 0 -11 -4 -2 -14 6 -7 9 -15 7 -17 -2 -2
-13 8 -23 22 -11 14 -14 22 -8 18 8 -5 12 1 12 16 0 18 -2 20 -10 8 -5 -8 -10
-10 -10 -5 0 6 6 17 13 24 6 8 7 11 2 8 -6 -3 -17 3 -24 15 -8 12 -8 17 -1 13
7 -5 9 2 5 22 -5 25 -4 26 4 6 11 -25 24 -32 15 -8 -8 20 4 67 16 60 5 -3 11
-1 14 4 7 10 -13 9 -30 -1 -6 -4 -11 -1 -11 7 0 8 5 13 10 12 5 -1 11 6 12 16
5 26 11 31 19 12 4 -11 2 -14 -6 -9 -7 4 -8 3 -4 -4 9 -15 11 -15 27 5 10 11
10 14 2 9 -9 -5 -13 0 -13 16 0 18 2 20 10 8 7 -10 10 -11 11 -2 3 27 4 31 13
39 5 5 6 3 2 -4 -4 -8 -2 -13 5 -13 8 0 7 -5 -2 -17 -13 -16 -12 -17 2 -5 10
8 15 21 12 35 -4 18 -3 19 6 7 6 -8 11 -10 11 -4 0 18 31 26 46 13 11 -9 15
-7 20 5 3 9 10 13 15 10 5 -3 6 -10 3 -16 -4 -7 -2 -8 5 -4 6 4 9 12 6 17 -4
5 -2 9 4 9 5 0 12 -6 14 -12 4 -10 6 -10 6 0 1 6 6 12 12 12 5 0 7 -5 3 -12
-4 -6 -3 -8 4 -4 6 3 13 2 17 -4 4 -6 10 -8 15 -5 4 3 13 -2 20 -10 7 -8 16
-13 20 -10 4 3 11 -2 14 -11 6 -15 9 -15 28 2 21 19 21 19 10 -2 -9 -18 -8
-25 11 -40 14 -12 17 -13 9 -3 -6 9 -8 20 -4 24 4 5 1 5 -7 0 -10 -6 -12 -4
-7 4 9 13 21 6 21 -12 1 -7 6 -11 13 -10 7 2 9 -4 5 -14 -4 -11 -3 -14 5 -9 8
5 10 1 5 -10 -4 -11 -3 -15 5 -10 11 7 10 -13 -3 -45 -3 -10 -2 -20 4 -24 6
-3 11 -14 11 -23 0 -13 -2 -13 -16 4 -15 18 -15 18 -5 -3 15 -29 14 -56 -1
-47 -6 4 -8 3 -4 -4 3 -6 2 -13 -4 -17 -6 -4 -8 -10 -5 -14 2 -5 -4 -16 -15
-26 -11 -10 -16 -23 -13 -29 16 -25 10 -33 -23 -31 -36 3 -53 -8 -33 -21 7 -4
9 -3 5 4 -7 12 19 10 31 -2 4 -4 4 -7 -2 -6 -5 1 -13 1 -17 0 -20 -6 -34 -5
-40 5 -5 6 -8 6 -8 -2 0 -7 -6 -10 -14 -7 -8 3 -17 1 -20 -5 -4 -6 -14 -7 -23
-4 -11 4 -14 2 -11 -8 5 -15 74 -23 83 -10 3 5 15 7 27 3 13 -3 19 -1 15 5 -5
7 0 9 12 6 11 -3 44 3 73 12 144 48 261 132 334 242 36 55 100 201 91 209 -2
3 -123 0 -268 -7 -330 -14 -454 -14 -749 0 -129 6 -243 11 -253 11 -14 0 -17
-5 -11 -22z m744 -44 c0 -3 -7 -1 -15 6 -8 7 -15 17 -15 22 0 5 7 3 15 -6 8
-8 15 -18 15 -22z m31 1 c5 4 6 -1 2 -10 -5 -13 -7 -14 -14 -3 -5 7 -8 18 -8
23 0 6 3 4 6 -3 2 -6 9 -10 14 -7z m92 -150 c-3 -9 -8 -14 -10 -11 -3 3 -2 9
2 15 9 16 15 13 8 -4z m4 -87 c-3 -8 -6 -5 -6 6 -1 11 2 17 5 13 3 -3 4 -12 1
-19z m-12 -38 c-8 -9 -12 -20 -8 -25 5 -4 2 -5 -5 -1 -7 4 -15 1 -18 -8 -3 -9
-11 -16 -17 -16 -6 0 0 11 13 25 13 14 20 25 16 25 -4 0 -5 4 -2 8 3 5 12 9
21 9 13 0 13 -2 0 -17z m-348 -102 c-3 -8 -6 -5 -6 6 -1 11 2 17 5 13 3 -3 4
-12 1 -19z m207 -27 c-8 -8 -43 -8 -38 0 2 4 13 7 24 6 10 -1 17 -3 14 -6z"/>
<path d="M5046 4042 c-3 -5 1 -9 9 -9 8 0 12 4 9 9 -3 4 -7 8 -9 8 -2 0 -6 -4
-9 -8z"/>
<path d="M5328 3923 c6 -2 9 -10 6 -15 -4 -7 -2 -8 5 -4 13 9 5 26 -12 25 -9
0 -8 -2 1 -6z"/>
<path d="M4918 3833 c7 -3 16 -2 19 1 4 3 -2 6 -13 5 -11 0 -14 -3 -6 -6z"/>
<path d="M4960 3706 c0 -2 7 -9 15 -16 13 -11 14 -10 9 4 -5 14 -24 23 -24 12z"/>
<path d="M5280 3689 c0 -5 5 -7 10 -4 6 3 10 8 10 11 0 2 -4 4 -10 4 -5 0 -10
-5 -10 -11z"/>
<path d="M5031 3654 c0 -11 3 -14 6 -6 3 7 2 16 -1 19 -3 4 -6 -2 -5 -13z"/>
<path d="M3981 7503 c-12 -76 -23 -150 -26 -165 l-4 -28 68 0 c65 0 68 1 64
23 -2 12 -12 85 -22 162 -15 126 -19 140 -37 143 -19 3 -23 -8 -43 -135z m52
-120 c5 -38 3 -43 -15 -43 -18 0 -20 4 -14 31 3 17 6 43 6 58 1 38 16 7 23
-46z"/>
<path d="M6211 7583 c-9 -52 -41 -255 -41 -268 0 -3 29 -5 65 -5 45 0 65 4 65
13 0 6 -9 80 -20 162 -11 83 -20 151 -20 153 0 1 -8 2 -19 2 -15 0 -21 -12
-30 -57z m38 -210 c1 -24 -3 -33 -15 -33 -14 0 -15 7 -10 38 3 20 6 48 7 62 1
23 2 23 9 -5 4 -16 8 -45 9 -62z"/>
<path d="M3850 4660 c-9 -6 -10 -10 -3 -10 6 0 15 5 18 10 8 12 4 12 -15 0z"/>
<path d="M3846 4587 c3 -10 9 -15 12 -12 3 3 0 11 -7 18 -10 9 -11 8 -5 -6z"/>
<path d="M3235 4551 c-3 -5 -2 -12 3 -15 5 -3 9 1 9 9 0 17 -3 19 -12 6z"/>
<path d="M3234 4503 c4 -26 22 -34 22 -10 0 13 -5 24 -12 24 -6 0 -11 -6 -10
-14z"/>
<path d="M3265 4339 c2 -10 8 -26 13 -35 8 -15 10 -15 15 0 5 11 3 15 -5 10
-7 -5 -9 1 -6 18 3 15 0 25 -8 25 -7 0 -11 -8 -9 -18z"/>
<path d="M3490 3801 c4 -9 9 -20 10 -26 3 -18 7 -16 13 5 3 13 1 18 -6 13 -6
-4 -8 0 -5 9 4 8 0 15 -7 15 -10 0 -11 -5 -5 -16z"/>
<path d="M7028 3668 c5 -20 15 -17 18 6 1 7 -4 13 -11 13 -7 0 -10 -8 -7 -19z"/>
<path d="M6751 3337 c-1 -11 -6 -15 -13 -11 -7 5 -8 3 -3 -5 10 -16 29 2 22
21 -4 8 -6 7 -6 -5z"/>
<path d="M4375 2981 c-3 -5 -2 -12 3 -15 5 -3 9 1 9 9 0 17 -3 19 -12 6z"/>
<path d="M6199 2977 c6 -8 7 -18 3 -22 -4 -5 -1 -5 6 -1 10 6 10 11 1 22 -6 8
-14 14 -16 14 -3 0 0 -6 6 -13z"/>
<path d="M6230 2969 c0 -5 5 -7 10 -4 6 3 10 8 10 11 0 2 -4 4 -10 4 -5 0 -10
-5 -10 -11z"/>
<path d="M6121 2924 c0 -11 3 -14 6 -6 3 7 2 16 -1 19 -3 4 -6 -2 -5 -13z"/>
<path d="M6021 2884 c0 -11 3 -14 6 -6 3 7 2 16 -1 19 -3 4 -6 -2 -5 -13z"/>
<path d="M4631 2864 c0 -11 3 -14 6 -6 3 7 2 16 -1 19 -3 4 -6 -2 -5 -13z"/>
<path d="M5963 2865 c0 -8 4 -12 9 -9 5 3 6 10 3 15 -9 13 -12 11 -12 -6z"/>
<path d="M4691 2844 c0 -11 3 -14 6 -6 3 7 2 16 -1 19 -3 4 -6 -2 -5 -13z"/>
<path d="M5895 2850 c-4 -6 -11 -7 -17 -4 -6 4 -8 2 -5 -4 7 -10 32 -11 42 0
4 3 2 9 -4 12 -5 4 -12 2 -16 -4z"/>
<path d="M4730 2841 c0 -6 4 -13 10 -16 6 -3 7 1 4 9 -7 18 -14 21 -14 7z"/>
<path d="M5831 2824 c0 -11 3 -14 6 -6 3 7 2 16 -1 19 -3 4 -6 -2 -5 -13z"/>
<path d="M4811 2814 c0 -11 3 -14 6 -6 3 7 2 16 -1 19 -3 4 -6 -2 -5 -13z"/>
<path d="M5791 2814 c0 -11 3 -14 6 -6 3 7 2 16 -1 19 -3 4 -6 -2 -5 -13z"/>
<path d="M4851 2804 c0 -11 3 -14 6 -6 3 7 2 16 -1 19 -3 4 -6 -2 -5 -13z"/>
<path d="M5751 2804 c0 -11 3 -14 6 -6 3 7 2 16 -1 19 -3 4 -6 -2 -5 -13z"/>
<path d="M4890 2801 c0 -6 4 -13 10 -16 6 -3 7 1 4 9 -7 18 -14 21 -14 7z"/>
<path d="M4916 2797 c3 -10 9 -15 12 -12 3 3 0 11 -7 18 -10 9 -11 8 -5 -6z"/>
<path d="M4940 2791 c0 -6 4 -13 10 -16 6 -3 7 1 4 9 -7 18 -14 21 -14 7z"/>
<path d="M5638 2788 c-5 -11 -2 -15 10 -14 9 2 18 9 20 17 3 12 2 12 -6 0 -8
-11 -10 -11 -14 0 -3 10 -6 9 -10 -3z"/>
<path d="M4994 2778 c-3 -5 -2 -8 3 -7 4 1 10 0 13 -1 20 -8 37 -6 37 4 0 13
-45 17 -53 4z"/>
<path d="M5084 2769 c1 -7 9 -13 18 -15 11 -1 15 3 11 13 -4 11 -8 12 -13 3
-6 -9 -9 -9 -13 -1 -4 8 -5 8 -3 0z"/>
<path d="M5478 2769 c-5 -12 0 -15 20 -14 14 0 27 7 30 15 3 13 2 12 -7 0 -10
-13 -11 -13 -11 0 0 12 -2 13 -9 1 -7 -11 -9 -11 -13 0 -3 10 -6 9 -10 -2z"/>
<path d="M4997 2180 c-31 -25 -34 -46 -10 -96 17 -35 17 -36 -2 -51 -18 -14
-13 -15 59 -9 43 3 90 6 103 6 32 0 30 25 -5 81 -54 83 -99 105 -145 69z"/>
<path d="M5475 1839 l-7 -113 26 -23 c33 -28 94 -31 125 -5 19 15 24 33 32
126 6 59 9 110 7 112 -3 2 -43 7 -90 10 l-86 7 -7 -114z"/>
<path d="M3842 1853 l-33 -4 7 -67 c3 -37 7 -68 8 -69 3 -3 139 17 144 22 2 2
1 31 -3 64 l-7 61 -41 -2 c-23 0 -57 -3 -75 -5z"/>
<path d="M3676 1614 c-43 -43 9 -111 68 -88 12 4 16 20 16 55 l0 49 -34 0
c-19 0 -42 -7 -50 -16z"/>
<path d="M6662 1558 c-7 -7 -12 -27 -12 -45 0 -27 5 -34 27 -39 33 -9 53 15
53 63 0 29 -3 33 -28 33 -15 0 -33 -5 -40 -12z"/>
<path d="M2224 8311 c-33 -20 -62 -72 -71 -127 -5 -27 -9 -34 -22 -28 -79 34
-170 -23 -186 -118 l-7 -42 -19 23 -19 23 -69 -54 c-73 -55 -86 -72 -48 -63
30 8 41 -2 151 -143 117 -150 120 -156 106 -183 -7 -11 -10 -22 -8 -24 2 -2
45 29 96 68 l93 72 -36 5 c-32 4 -46 18 -126 119 -75 96 -89 119 -89 150 0 35
28 81 49 81 19 0 65 -47 139 -143 97 -125 103 -137 90 -161 -5 -9 -7 -20 -4
-23 5 -5 170 119 180 136 3 5 -9 8 -26 7 -30 -1 -40 8 -125 114 -90 111 -93
117 -90 157 5 51 21 73 53 73 18 0 43 -24 105 -102 122 -154 133 -172 119
-198 -6 -12 -10 -24 -7 -26 4 -4 144 101 177 133 13 13 12 14 -10 13 -14 -1
-30 -2 -36 -1 -6 1 -55 58 -109 127 -54 69 -111 132 -126 140 -38 19 -88 18
-125 -5z"/>
<path d="M8020 8301 c5 -11 10 -26 10 -34 0 -19 -217 -297 -233 -298 -7 -1
-23 0 -37 1 -14 1 -22 -1 -19 -4 19 -20 185 -146 192 -146 4 0 0 11 -9 25 -15
23 -15 27 2 53 44 67 121 157 158 183 58 42 83 39 106 -15 11 -27 27 -47 40
-51 32 -10 74 24 78 62 6 59 -68 89 -157 63 -19 -5 -36 -8 -38 -6 -2 2 8 17
22 34 14 16 25 34 25 39 0 9 -133 113 -144 113 -4 0 -2 -9 4 -19z"/>
<path d="M8363 7951 c-70 -33 -88 -88 -68 -205 21 -118 20 -142 -10 -162 -23
-15 -27 -15 -50 0 -14 10 -31 29 -36 44 -11 27 -7 103 6 135 14 34 -11 16 -57
-42 -52 -64 -57 -75 -30 -67 15 5 26 -5 50 -44 65 -105 172 -121 250 -37 33
35 37 86 17 199 -21 112 -16 133 31 133 23 0 33 -7 49 -37 17 -32 18 -43 8
-90 -6 -29 -9 -55 -6 -58 6 -7 92 92 93 108 0 6 -9 12 -20 12 -13 0 -26 14
-40 39 -39 78 -114 106 -187 72z"/>
<path d="M1600 7735 c-49 -15 -102 -61 -128 -109 -37 -71 -8 -190 64 -261 120
-118 285 -102 357 35 24 46 28 63 23 102 -7 63 -32 114 -78 160 -72 72 -158
98 -238 73z m13 -67 c39 -20 129 -102 184 -167 44 -52 54 -69 51 -94 -2 -21
-11 -36 -28 -46 -23 -12 -30 -12 -64 4 -42 20 -186 158 -216 208 -25 41 -25
62 0 87 23 23 42 25 73 8z"/>
<path d="M1090 7511 c0 -6 5 -13 10 -16 26 -16 7 -47 -58 -95 -131 -94 -190
-230 -162 -368 47 -227 279 -352 476 -255 103 50 195 176 210 286 8 60 -2 114
-25 126 -16 9 -17 4 -13 -67 3 -70 1 -82 -25 -131 -15 -30 -45 -68 -66 -85
-36 -28 -45 -31 -110 -31 -64 0 -80 5 -146 40 -88 46 -173 126 -201 187 -40
87 -19 182 54 246 55 48 124 62 199 41 22 -6 41 -8 44 -5 5 5 -166 135 -179
136 -5 0 -8 -4 -8 -9z"/>
<path d="M9070 7399 c-80 -22 -225 -60 -323 -85 -173 -45 -180 -46 -218 -31
-21 8 -39 12 -39 9 0 -15 134 -174 138 -164 2 6 -4 22 -14 37 -26 39 -7 69 55
90 28 9 57 15 65 13 7 -2 45 -42 83 -89 l70 -85 -25 -50 c-43 -87 -71 -104
-107 -64 -10 11 -20 18 -23 15 -6 -6 187 -245 198 -245 5 0 3 14 -3 31 -11 29
-4 46 146 339 86 170 157 311 157 314 0 9 -1 8 -160 -35z m-90 -129 c-22 -43
-48 -93 -59 -110 l-19 -31 -62 76 c-34 42 -61 77 -59 79 4 3 216 63 232 65 4
0 -11 -35 -33 -79z"/>
<path d="M9243 6869 c-64 -19 -91 -75 -108 -232 -10 -87 -58 -124 -100 -77
-25 27 -17 115 14 159 13 18 21 34 18 37 -6 6 -136 -78 -137 -87 0 -4 9 -9 19
-12 13 -3 24 -20 31 -48 18 -66 37 -98 73 -119 64 -39 163 -15 200 48 11 19
22 69 29 129 14 135 40 171 88 123 28 -28 26 -85 -5 -139 -14 -24 -24 -46 -21
-48 7 -7 125 71 126 83 0 7 -8 14 -19 17 -12 3 -21 18 -25 43 -11 59 -41 100
-86 118 -45 18 -51 18 -97 5z"/>
<path d="M9413 6480 c-42 -25 -57 -57 -78 -160 -20 -104 -36 -130 -74 -130
-63 0 -74 78 -22 161 17 28 31 53 31 56 0 4 -128 -62 -138 -72 -2 -2 6 -13 17
-24 12 -12 21 -33 21 -48 1 -40 34 -109 63 -128 58 -38 142 -28 189 23 29 30
42 67 58 162 18 103 53 137 95 90 24 -26 15 -89 -19 -139 -14 -20 -26 -41 -26
-45 0 -4 32 10 70 31 67 36 70 38 51 53 -11 8 -23 33 -27 55 -15 90 -60 135
-133 135 -28 0 -59 -8 -78 -20z"/>
<path d="M682 6410 c-39 -24 -82 -109 -90 -175 -5 -50 11 -105 38 -130 43 -39
110 -9 110 50 0 42 -16 55 -66 55 -50 0 -60 16 -40 65 19 45 51 53 110 26 35
-15 46 -25 46 -43 1 -79 21 -213 34 -234 24 -35 63 -57 99 -56 62 2 100 81 80
168 -10 43 -10 44 16 44 39 0 69 25 82 68 9 32 8 45 -7 77 -17 39 -18 40 -22
13 -2 -16 -9 -28 -16 -28 -8 0 -71 27 -142 60 -141 65 -179 72 -232 40z m233
-189 c53 -28 66 -53 45 -90 -11 -21 -43 -27 -75 -15 -19 8 -50 66 -58 112 -6
31 -5 33 16 27 12 -4 45 -19 72 -34z"/>
<path d="M9497 6076 c-58 -21 -105 -57 -137 -105 -54 -81 -35 -200 43 -268 80
-70 246 -54 339 34 109 103 62 303 -80 343 -50 14 -119 12 -165 -4z m253 -116
c24 -24 25 -38 4 -68 -21 -30 -69 -53 -187 -91 -107 -34 -168 -39 -187 -16
-17 20 -16 61 1 82 18 22 102 58 203 88 101 30 140 31 166 5z"/>
<path d="M280 6010 c-35 -35 -21 -102 25 -120 33 -13 80 5 94 36 16 35 14 47
-10 78 -26 33 -79 36 -109 6z"/>
<path d="M466 5892 c-31 -93 -33 -117 -6 -82 l19 25 174 -58 c96 -32 180 -64
186 -70 6 -6 11 -22 11 -36 0 -15 4 -21 9 -15 14 14 82 216 75 223 -3 3 -10
-2 -15 -12 -16 -28 -57 -21 -239 43 -95 33 -176 60 -180 60 -5 0 -20 -35 -34
-78z"/>
<path d="M171 5608 c-12 -51 -21 -96 -21 -100 0 -17 18 -7 23 12 3 11 13 23
23 27 16 6 182 -22 193 -33 3 -2 -10 -20 -28 -38 -90 -93 -24 -240 130 -291
74 -25 184 -18 232 15 66 45 87 133 47 198 l-20 33 35 -7 35 -6 -1 98 c0 93
-1 98 -16 77 -8 -13 -23 -23 -32 -23 -15 0 -515 112 -562 126 -13 4 -20 -13
-38 -88z m414 -137 c111 -26 122 -30 143 -61 27 -40 27 -51 4 -80 -24 -30 -88
-36 -181 -16 -92 19 -159 51 -174 83 -8 19 -7 29 10 51 17 23 58 52 73 51 3 0
59 -12 125 -28z"/>
<path d="M9673 5570 c-78 -16 -149 -65 -180 -123 -8 -16 -14 -53 -14 -82 0
-80 39 -139 119 -180 48 -24 52 -10 9 29 -30 27 -37 41 -37 71 0 50 26 90 80
125 44 28 142 60 187 60 54 0 101 -46 74 -73 -6 -6 -30 -20 -54 -32 -52 -25
-68 -61 -43 -99 36 -56 126 -13 141 68 9 47 -10 122 -40 162 -46 60 -153 92
-242 74z"/>
<path d="M9970 5151 c0 -10 -7 -24 -15 -31 -9 -7 -95 -24 -192 -38 l-177 -25
-23 29 c-28 35 -28 31 -8 -111 8 -55 15 -104 15 -108 0 -18 20 6 20 24 0 29
27 36 229 64 101 14 186 27 189 29 7 8 -21 186 -29 186 -5 0 -9 -8 -9 -19z"/>
<path d="M10101 5122 c-30 -23 -31 -76 -3 -104 45 -46 122 -15 122 49 0 63
-70 96 -119 55z"/>
<path d="M699 5037 c-16 -21 -18 -21 -115 -8 -163 22 -262 25 -291 10 -56 -30
-69 -115 -28 -188 l25 -44 -29 6 -28 6 -13 -90 c-12 -93 -10 -116 10 -80 14
27 47 27 232 0 156 -23 178 -30 178 -59 0 -11 4 -20 8 -20 9 0 44 221 37 228
-2 2 -13 -6 -25 -18 -15 -15 -29 -19 -53 -16 -18 3 -84 13 -147 22 -74 10
-122 22 -134 32 -27 25 -38 60 -26 83 14 25 55 25 225 -1 125 -18 155 -30 155
-63 0 -4 4 -6 8 -3 9 5 38 213 31 220 -2 2 -11 -6 -20 -17z"/>
<path d="M9877 4802 c-19 -21 -22 -64 -7 -93 13 -23 62 -26 80 -4 30 36 70 6
70 -53 0 -40 -21 -55 -84 -60 l-53 -4 -36 58 c-75 123 -141 175 -202 160 -81
-20 -86 -135 -9 -207 27 -25 31 -39 11 -39 -26 0 -47 -36 -47 -79 0 -36 6 -49
35 -78 37 -37 54 -39 36 -4 -8 14 -8 22 1 27 6 4 77 13 157 21 156 15 178 23
212 76 27 43 22 144 -11 212 -36 74 -115 109 -153 67z m-108 -137 c26 -13 86
-74 79 -80 -2 -1 -38 -6 -80 -10 l-77 -7 -16 32 c-15 29 -15 34 0 56 18 28 52
31 94 9z"/>
<path d="M20 4530 c-7 -14 -14 -340 -7 -340 4 0 7 11 7 24 0 13 8 34 18 46
l18 23 279 -10 c272 -10 279 -10 297 -33 10 -12 18 -34 19 -49 0 -24 1 -24 9
-5 10 26 18 324 8 324 -5 0 -8 -11 -8 -25 0 -33 -33 -65 -67 -65 -16 0 -140 5
-278 10 -271 11 -271 11 -285 71 -4 19 -9 32 -10 29z"/>
<path d="M10010 4300 l0 -30 -178 0 -178 0 -27 -28 c-49 -51 -44 -139 10 -182
41 -32 59 -25 29 10 -28 34 -25 57 8 65 11 3 91 4 176 3 l155 -3 -3 -52 c-2
-51 -2 -53 23 -53 23 0 25 3 25 50 l0 50 85 0 c86 0 104 9 63 31 -41 22 -114
87 -143 129 -33 48 -45 51 -45 10z"/>
<path d="M9577 3908 c-4 -46 -7 -101 -7 -123 l1 -40 15 28 c17 32 4 31 241 15
101 -6 186 -8 190 -4 10 9 20 176 12 176 -4 0 -9 -7 -13 -15 -11 -29 -50 -32
-218 -20 -165 12 -198 21 -198 51 0 8 -4 14 -9 14 -4 0 -11 -37 -14 -82z"/>
<path d="M10145 3898 c-73 -39 -50 -138 32 -138 32 0 73 37 73 66 0 29 -25 64
-53 74 -16 5 -30 10 -31 10 -1 0 -10 -6 -21 -12z"/>
<path d="M676 3867 c-8 -35 -25 -39 -355 -78 l-273 -32 7 -81 c8 -92 19 -123
29 -83 3 14 14 28 24 31 27 9 497 66 541 66 31 0 43 -5 51 -21 20 -36 22 -14
9 93 -13 115 -23 145 -33 105z"/>
<path d="M9695 3672 c-105 -10 -177 -80 -191 -186 -12 -82 37 -165 120 -208
50 -26 167 -36 220 -18 117 38 174 189 112 294 -47 81 -154 129 -261 118z
m119 -154 c121 -28 168 -76 118 -121 -31 -28 -75 -30 -193 -7 -117 22 -178 42
-191 63 -15 24 -8 66 15 82 27 21 119 14 251 -17z"/>
<path d="M710 3592 c0 -12 -10 -28 -22 -36 -13 -7 -144 -35 -293 -61 -335 -58
-317 -54 -311 -74 2 -9 10 -49 16 -88 7 -40 16 -73 21 -73 5 0 9 9 9 20 0 10
8 24 18 29 17 9 521 101 554 101 10 0 26 -10 38 -22 25 -27 25 -22 1 110 -18
99 -31 139 -31 94z"/>
<path d="M740 3301 c0 -38 -30 -69 -298 -306 -122 -109 -221 -199 -219 -201 1
-2 150 -19 331 -39 328 -36 374 -45 395 -82 5 -10 12 -15 16 -11 8 8 -56 208
-66 208 -4 0 -5 -18 -2 -39 5 -34 2 -41 -20 -56 -20 -13 -38 -15 -81 -10 l-55
7 -36 107 c-19 58 -35 109 -35 113 0 12 111 98 126 98 7 0 21 -14 29 -31 34
-64 25 -15 -21 125 -48 144 -64 174 -64 117z m-74 -413 c42 -125 47 -112 -37
-104 -41 3 -96 9 -124 13 l-49 6 84 78 c47 43 89 77 94 76 5 -2 20 -33 32 -69z"/>
<path d="M9436 3103 c-20 -59 -34 -109 -31 -111 2 -2 11 3 20 12 9 9 23 16 31
16 9 0 77 -20 154 -45 131 -43 139 -47 155 -80 19 -41 13 -71 -17 -81 -13 -4
-77 12 -171 42 -131 43 -152 53 -168 78 -13 22 -20 26 -24 15 -18 -48 -63
-204 -60 -207 2 -2 13 6 24 17 19 19 24 19 63 7 24 -7 99 -30 167 -51 112 -34
127 -36 163 -26 70 21 101 117 62 192 l-16 31 31 -7 30 -6 25 83 c32 103 32
107 3 80 l-24 -22 -69 20 c-262 79 -320 106 -299 140 3 6 2 10 -4 10 -5 0 -25
-48 -45 -107z"/>
</g>
</svg>
